HIERARCHY
ROOT ZeroOut_JNT
{
  OFFSET 0 0 0
  CHANNELS 6 Xposition Yposition Zposition Zrotation Xrotation Yrotation
  JOINT SpineFinal_1_JNT
  {
    OFFSET 1.09941 64.002 -42.9966
    CHANNELS 6 Xposition Yposition Zposition Zrotation Xrotation Yrotation
    JOINT l_legIKClavicle_Root_JNT
    {
      OFFSET -2.64853 -0.810668 10.7015
      CHANNELS 6 Xposition Yposition Zposition Zrotation Xrotation Yrotation
      JOINT l_legBlendRoot_JNT
      {
        OFFSET 16.1374 0 0
        CHANNELS 6 Xposition Yposition Zposition Zrotation Xrotation Yrotation
        JOINT l_legBlendMiddle_JNT
        {
          OFFSET 27.0969 0 0
          CHANNELS 6 Xposition Yposition Zposition Zrotation Xrotation Yrotation
          JOINT l_legBlendEnd_JNT
          {
            OFFSET 24.8414 0 0
            CHANNELS 6 Xposition Yposition Zposition Zrotation Xrotation Yrotation
            JOINT l_legBlendTip_JNT
            {
              OFFSET 6.77858 0 0
              CHANNELS 6 Xposition Yposition Zposition Zrotation Xrotation Yrotation
              End Site
              {
                OFFSET 0 0 0
              }
            }
          }
        }
      }
    }
    JOINT SpineFinal_2_JNT
    {
      OFFSET -19.9136 -1.49144 0.993757
      CHANNELS 6 Xposition Yposition Zposition Zrotation Xrotation Yrotation
      JOINT SpineFinal_3_JNT
      {
        OFFSET -19.2001 3.24201 2.0363
        CHANNELS 6 Xposition Yposition Zposition Zrotation Xrotation Yrotation
        JOINT SpineFinal_4_JNT
        {
          OFFSET -19.1272 6.18264 0.824529
          CHANNELS 6 Xposition Yposition Zposition Zrotation Xrotation Yrotation
          JOINT SpineFinal_5_JNT
          {
            OFFSET -18.1852 7.21578 -1.20318
            CHANNELS 6 Xposition Yposition Zposition Zrotation Xrotation Yrotation
            JOINT SpineFinal_6_JNT
            {
              OFFSET -19.144 8.35871 0
              CHANNELS 6 Xposition Yposition Zposition Zrotation Xrotation Yrotation
              JOINT SpineFinal_7_JNT
              {
                OFFSET -16.3943 7.24542 0
                CHANNELS 6 Xposition Yposition Zposition Zrotation Xrotation Yrotation
                JOINT SpineFinal_8_JNT
                {
                  OFFSET -19.3877 2.40349 0
                  CHANNELS 6 Xposition Yposition Zposition Zrotation Xrotation Yrotation
                  JOINT head_JNT
                  {
                    OFFSET -13.796 -11.6756 0
                    CHANNELS 6 Xposition Yposition Zposition Zrotation Xrotation Yrotation
                    JOINT l_hornRoot_JNT
                    {
                      OFFSET -15.825 14.8229 15.3879
                      CHANNELS 6 Xposition Yposition Zposition Zrotation Xrotation Yrotation
                      JOINT l_hornMid_JNT
                      {
                        OFFSET 6.55118 0 0
                        CHANNELS 6 Xposition Yposition Zposition Zrotation Xrotation Yrotation
                        JOINT l_hornEnd_JNT
                        {
                          OFFSET 6.73503 0 0
                          CHANNELS 6 Xposition Yposition Zposition Zrotation Xrotation Yrotation
                          End Site
                          {
                            OFFSET 0 0 0
                          }
                        }
                      }
                    }
                    JOINT headJend_JNT
                    {
                      OFFSET 1.34858 -27.5886 0
                      CHANNELS 6 Xposition Yposition Zposition Zrotation Xrotation Yrotation
                      End Site
                      {
                        OFFSET -0.885571 -8.63314 -0.143146
                      }
                    }
                    JOINT r_hornRoot_JNT
                    {
                      OFFSET -15.825 14.8229 -15.3879
                      CHANNELS 6 Xposition Yposition Zposition Zrotation Xrotation Yrotation
                      JOINT r_hornMid_JNT
                      {
                        OFFSET -2.40814 5.46468 -2.69372
                        CHANNELS 6 Xposition Yposition Zposition Zrotation Xrotation Yrotation
                        JOINT r_hornEnd_JNT
                        {
                          OFFSET -2.40922 6.0083 -1.85921
                          CHANNELS 6 Xposition Yposition Zposition Zrotation Xrotation Yrotation
                          End Site
                          {
                            OFFSET 0 0 0
                          }
                        }
                      }
                    }
                    JOINT m_upLip_JNT
                    {
                      OFFSET 4.72477 -9.87974 0
                      CHANNELS 6 Xposition Yposition Zposition Zrotation Xrotation Yrotation
                      JOINT l_lipUpRoot_JNT
                      {
                        OFFSET 2.68891 -0.690234 4.02874
                        CHANNELS 6 Xposition Yposition Zposition Zrotation Xrotation Yrotation
                        JOINT l_lipUpEnd_JNT
                        {
                          OFFSET 0 0 -14.9226
                          CHANNELS 6 Xposition Yposition Zposition Zrotation Xrotation Yrotation
                          End Site
                          {
                            OFFSET 0 0 0
                          }
                        }
                      }
                      JOINT m_upLipRoot_JNT
                      {
                        OFFSET 0 0 3.94939
                        CHANNELS 6 Xposition Yposition Zposition Zrotation Xrotation Yrotation
                        JOINT m_upLipEnd_JNT
                        {
                          OFFSET 0 0 15.0019
                          CHANNELS 6 Xposition Yposition Zposition Zrotation Xrotation Yrotation
                          End Site
                          {
                            OFFSET 0 0 0
                          }
                        }
                      }
                      JOINT r_lipUpRoot_JNT
                      {
                        OFFSET -2.689 -0.690236 4.02875
                        CHANNELS 6 Xposition Yposition Zposition Zrotation Xrotation Yrotation
                        JOINT r_lipUpEnd_JNT
                        {
                          OFFSET 9.35075e-005 -0.000392738 14.9226
                          CHANNELS 6 Xposition Yposition Zposition Zrotation Xrotation Yrotation
                          End Site
                          {
                            OFFSET 0 0 0
                          }
                        }
                      }
                    }
                    JOINT m_DnLip_JNT
                    {
                      OFFSET 6.0207 -9.81639 0
                      CHANNELS 6 Xposition Yposition Zposition Zrotation Xrotation Yrotation
                      JOINT l_lipDn_JNT
                      {
                        OFFSET 2.71301 -0.162748 3.99146
                        CHANNELS 6 Xposition Yposition Zposition Zrotation Xrotation Yrotation
                        JOINT l_lipEnd_JNT
                        {
                          OFFSET 0 0 -14.9599
                          CHANNELS 6 Xposition Yposition Zposition Zrotation Xrotation Yrotation
                          End Site
                          {
                            OFFSET 0 0 0
                          }
                        }
                      }
                      JOINT m_dnLip_JNT
                      {
                        OFFSET 0 -0.0431035 3.99141
                        CHANNELS 6 Xposition Yposition Zposition Zrotation Xrotation Yrotation
                        JOINT m_dnLipEnd_JNT
                        {
                          OFFSET 0 0 14.9599
                          CHANNELS 6 Xposition Yposition Zposition Zrotation Xrotation Yrotation
                          End Site
                          {
                            OFFSET 0 0 0
                          }
                        }
                      }
                      JOINT r_lipDn_JNT
                      {
                        OFFSET -2.71301 -0.162761 3.99141
                        CHANNELS 6 Xposition Yposition Zposition Zrotation Xrotation Yrotation
                        JOINT r_lipDnEnd_JNT
                        {
                          OFFSET 0 0 14.9599
                          CHANNELS 6 Xposition Yposition Zposition Zrotation Xrotation Yrotation
                          End Site
                          {
                            OFFSET 0 0 0
                          }
                        }
                      }
                    }
                    JOINT l_lid_JNT
                    {
                      OFFSET -7.85698 -6.72885 9.63956
                      CHANNELS 6 Xposition Yposition Zposition Zrotation Xrotation Yrotation
                      End Site
                      {
                        OFFSET 0 0 0
                      }
                    }
                    JOINT r_lid_JNT
                    {
                      OFFSET -7.85684 -6.72882 -9.63956
                      CHANNELS 6 Xposition Yposition Zposition Zrotation Xrotation Yrotation
                      End Site
                      {
                        OFFSET 0 0 0
                      }
                    }
                  }
                }
              }
            }
            JOINT l_FwClavicleRoot_JNT
            {
              OFFSET -3.21476 -4.3187 6.08742
              CHANNELS 6 Xposition Yposition Zposition Zrotation Xrotation Yrotation
              JOINT l_FwLegBlendRoot_JNT
              {
                OFFSET 21.051 0 0
                CHANNELS 6 Xposition Yposition Zposition Zrotation Xrotation Yrotation
                JOINT l_FwLegBlendMiddle_JNT
                {
                  OFFSET 33.1145 0 0
                  CHANNELS 6 Xposition Yposition Zposition Zrotation Xrotation Yrotation
                  JOINT l_FwLegBlendTip_JNT
                  {
                    OFFSET 29.9221 0 0
                    CHANNELS 6 Xposition Yposition Zposition Zrotation Xrotation Yrotation
                    JOINT l_FwLegBlendEnd_JNT
                    {
                      OFFSET 9.62649 0 0
                      CHANNELS 6 Xposition Yposition Zposition Zrotation Xrotation Yrotation
                      End Site
                      {
                        OFFSET 0 0 0
                      }
                    }
                  }
                }
              }
            }
            JOINT r_FwClavicleRoot_JNT
            {
              OFFSET 1.57499 -4.64749 -6.47788
              CHANNELS 6 Xposition Yposition Zposition Zrotation Xrotation Yrotation
              JOINT r_FwLegBlendRoot_JNT
              {
                OFFSET 1.1653 -12.7157 -16.7361
                CHANNELS 6 Xposition Yposition Zposition Zrotation Xrotation Yrotation
                JOINT r_FwLegBlendMiddle_JNT
                {
                  OFFSET 16.2308 -5.97551 28.2387
                  CHANNELS 6 Xposition Yposition Zposition Zrotation Xrotation Yrotation
                  JOINT r_FwLegBlendTip_JNT
                  {
                    OFFSET 26.7017 -9.19239 -9.89204
                    CHANNELS 6 Xposition Yposition Zposition Zrotation Xrotation Yrotation
                    JOINT r_FwLegBlendEnd_JNT
                    {
                      OFFSET 4.44874 -7.74942 3.58114
                      CHANNELS 6 Xposition Yposition Zposition Zrotation Xrotation Yrotation
                      End Site
                      {
                        OFFSET 0 0 0
                      }
                    }
                  }
                }
              }
            }
          }
        }
      }
    }
    JOINT r_legIKClavicle_Root_JNT
    {
      OFFSET -4.94604 1.23737 -11.8565
      CHANNELS 6 Xposition Yposition Zposition Zrotation Xrotation Yrotation
      JOINT r_legBlendRoot_JNT
      {
        OFFSET 13.2848 -5.74129 -7.13912
        CHANNELS 6 Xposition Yposition Zposition Zrotation Xrotation Yrotation
        JOINT r_legBlendMiddle_JNT
        {
          OFFSET 14.815 16.9375 15.0957
          CHANNELS 6 Xposition Yposition Zposition Zrotation Xrotation Yrotation
          JOINT r_legBlendEnd_JNT
          {
            OFFSET 23.6904 -6.58016 -3.54465
            CHANNELS 6 Xposition Yposition Zposition Zrotation Xrotation Yrotation
            JOINT r_legBlendTip_JNT
            {
              OFFSET 1.47758 -6.16068 -2.41079
              CHANNELS 6 Xposition Yposition Zposition Zrotation Xrotation Yrotation
              End Site
              {
                OFFSET 0 0 0
              }
            }
          }
        }
      }
    }
    JOINT tailRoot_JNT
    {
      OFFSET 2.82533 14.5514 0
      CHANNELS 6 Xposition Yposition Zposition Zrotation Xrotation Yrotation
      JOINT tailMid_JNT
      {
        OFFSET 7.87756 0 0
        CHANNELS 6 Xposition Yposition Zposition Zrotation Xrotation Yrotation
        JOINT tailEnd_JNT
        {
          OFFSET 6.52588 0 0
          CHANNELS 6 Xposition Yposition Zposition Zrotation Xrotation Yrotation
          End Site
          {
            OFFSET 0 0 0
          }
        }
      }
    }
    JOINT l_shoulderBkRoot_JNT
    {
      OFFSET -9.30511 7.998 11.2048
      CHANNELS 6 Xposition Yposition Zposition Zrotation Xrotation Yrotation
      JOINT l_shoulderBkMid_JNT
      {
        OFFSET 0 2.004 0
        CHANNELS 6 Xposition Yposition Zposition Zrotation Xrotation Yrotation
        End Site
        {
          OFFSET 0 0 0
        }
      }
    }
    JOINT r_shoulderBkRoot_JNT
    {
      OFFSET -9.30514 7.99801 -11.2048
      CHANNELS 6 Xposition Yposition Zposition Zrotation Xrotation Yrotation
      JOINT r_shoulderBkMid_JNT
      {
        OFFSET 0 -3.9713 0
        CHANNELS 6 Xposition Yposition Zposition Zrotation Xrotation Yrotation
        End Site
        {
          OFFSET 0 0 0
        }
      }
    }
  }
}
MOTION
Frames:	3
Frame Time:	0.0416667
0 0 0 0 0 -0 6.05378e-014 63.8472 -42.9318 3.02271 -2.01633 90.07 -0.323145 -1.55994 9.59625 -26.4062 61.2999 -67.9538 16.1374 -7.37512e-007 1.72916e-006 -30.9252 9.36221 40.4637 27.0969 2.13163e-014 -2.13163e-014 4.79473e-015 2.28602e-015 -62.9008 24.8414 3.55271e-015 7.10543e-015 0.656873 0.934481 -26.4934 6.77858 -7.10543e-015 -1.42109e-014 -3.79152e-022 -1.89576e-022 -0 -19.2762 -2.86699 -0.139021 11.6631 2.60692 -0.566068 -18.9072 -0.222642 -0.00425398 16.5603 0.34196 -0.110666 -17.3678 1.01225 5.93752e-006 -0.970374 0.00133226 -0.000328991 -16.6068 8.43948 -0.000138263 7.92219 -0.00158481 0.000585725 -19.144 8.35871 -2.07818e-014 -6.34034 -3.32703e-015 -1.07169e-014 -16.3943 7.24542 2.60761e-014 -8.28666 2.72564e-015 -1.39281e-014 -19.3877 2.40349 -3.46627e-014 5.68243 6.50214e-015 -1.44995e-014 -13.796 -11.6756 2.83201e-014 -28.7699 2.22307e-021 -3.31758e-022 -15.825 14.8229 15.3879 114.493 -3.15815 -24.2155 6.55118 1.27898e-013 8.88178e-015 7.83006 -7.25091 3.07197 6.73503 1.42109e-014 -4.52971e-014 -9.54166e-015 -3.97569e-016 8.15017e-015 1.34858 -27.5886 -1.33918e-014 92.7985 1.31729e-014 -1.65353e-014 -15.825 14.8229 -15.3879 1.77312 -0.229966 0.770292 -2.40814 5.46468 -2.69372 -28.8174 -4.88279 -9.9648 -2.40922 6.0083 -1.85921 -6.36111e-015 7.95139e-016 -7.95139e-016 4.72477 -9.87974 -3.65612e-016 92.7985 3.50417e-015 -90 4.96118 -0.690234 1.45871 180 7.01671e-015 -180 0 1.42109e-014 -14.9226 -3.08822e-039 -1.98785e-016 -8.90118e-022 1.69407e-021 -2.84217e-014 3.94939 -4.7394e-023 -1.98785e-016 -6.1427e-022 0 1.42109e-014 15.0019 -2.13118e-039 -1.98785e-016 -6.1427e-022 -4.16352 -0.485088 1.4795 -4.7394e-023 -1.98785e-016 -6.1427e-022 9.35075e-005 -0.000392738 14.9226 -2.13118e-039 -1.98785e-016 -6.1427e-022 6.0207 -9.81639 -3.65607e-016 112.799 3.23426e-015 -90 3.38327 -0.728579 2.22495 180 6.59355e-015 160 0 0 -14.9599 -2.20695e-031 6.36111e-015 1.98785e-015 -3.14501e-016 -0.0431035 3.99141 -6.75364e-022 -3.18055e-015 -1.77727e-022 0 0 14.9599 -7.10909e-023 3.18055e-015 -1.0012e-021 -2.08724 0.559133 2.49549 -1.15763e-015 -3.18055e-015 -20 0 0 14.9599 -7.95139e-016 6.36111e-015 -1.98785e-015 -7.85698 -6.72885 9.63956 34.106 19.9417 85.9622 -7.85684 -6.72882 -9.63956 -145.894 19.9417 85.9622 2.46613 -6.42324 6.72563 11.217 26.2605 -112.654 21.051 1.71235e-007 1.91612e-007 164.476 -61.9333 -137.235 33.1145 8.3753e-007 -2.8019e-007 72.9073 7.01671e-015 -180 29.9221 -2.9754e-014 -7.10543e-015 -32.9544 -3.42279e-015 3.46552e-015 9.62649 1.77636e-014 1.06581e-014 29.859 -1.7467e-015 90 0.215272 -5.48304 -6.72563 -74.3211 9.37258 -17.9831 1.1653 -12.7157 -16.7361 61.0028 -67.3961 147.108 16.2308 -5.97551 28.2387 154.485 18.2676 106.497 26.7017 -9.19239 -9.89204 9.98293 55.3107 56.037 4.44874 -7.74942 3.58114 29.859 -1.7467e-015 90 -0.323145 -1.55994 -9.59625 -62.7106 -9.24999 4.74057 13.2848 -5.74129 -7.13912 -15.7098 10.3475 47.5536 14.815 16.9375 15.0957 -3.91405 3.97872 -53.9115 23.6904 -6.58016 -3.54465 3.34893 0.929152 -51.0346 1.47758 -6.16068 -2.41079 7.95139e-016 -7.95139e-016 -8.49804e-015 2.82533 14.5514 -1.86517e-014 32.6668 -2.00648e-015 -4.50993e-015 7.87756 -3.55271e-014 -1.06581e-014 37.0988 -1.76421e-015 2.64011e-016 6.52588 1.77636e-014 -5.77316e-015 3.06283 2.60905e-016 -7.0817e-016 -9.30511 7.998 11.2048 -6.8505 -4.18474e-016 -90 0 0 0 3.29237e-016 0 8.69683e-017 -9.30514 7.99801 -11.2048 173.149 4.18474e-016 -90 0 0 0 7.76503e-016 -1.59028e-015 1.2424e-017 
0 0 0 0 0 -0 5.88027e-014 63.6412 -42.9399 2.93552 -1.67013 90.0502 -0.323145 -1.55994 9.59625 -26.4062 61.2999 -67.9538 16.1374 -7.32701e-007 1.72833e-006 -30.7591 9.38406 46.8617 27.0969 1.77636e-014 -4.26326e-014 5.41899e-015 2.23633e-015 -61.9803 24.8414 1.06581e-014 1.42109e-014 0.697625 0.813763 -34.1799 6.77858 -7.10543e-015 -1.42109e-014 1.07761e-035 -9.70628e-020 6.36111e-015 -19.2926 -2.84744 -0.134022 11.4842 2.53611 -0.540932 -18.9031 -0.0400877 -0.00300225 15.0045 0.332924 -0.0978503 -17.1505 1.22603 4.38089e-006 -1.87107 0.00125526 -0.000315144 -16.6571 8.28462 -0.000126032 8.47135 -0.00149086 0.000567251 -19.144 8.35871 -2.07817e-014 -6.02104 -3.38672e-015 -1.06982e-014 -16.3943 7.24542 2.60762e-014 -8.34033 2.73868e-015 -1.39256e-014 -19.3877 2.40349 -3.46626e-014 5.80334 6.47158e-015 -1.45133e-014 -13.796 -11.6756 2.83199e-014 -20.9635 -1.17063e-020 -9.09964e-021 -15.825 14.8229 15.3879 113.914 -2.89818 -24.246 6.55118 1.42109e-013 3.55271e-015 5.65748 -7.36122 2.7956 6.73503 2.84217e-014 -5.06262e-014 -1.14917e-031 1.54058e-015 4.27387e-015 1.34858 -27.5886 -1.33918e-014 92.7985 1.31729e-014 -1.65353e-014 -15.825 14.8229 -15.3879 1.19652 -0.157844 0.51917 -2.40814 5.46468 -2.69372 -30.848 -4.46285 -10.7499 -2.40922 6.0083 -1.85921 -3.18055e-015 0 -1.59028e-015 4.72477 -9.87974 -3.65796e-016 92.7985 3.50417e-015 -90 4.96118 -0.690234 1.45871 -180 7.01671e-015 180 -8.88178e-016 -1.42109e-014 -14.9226 1.13745e-021 0 -1.18959e-020 -6.77626e-020 -1.42109e-014 3.94939 7.58303e-022 -7.95139e-016 2.45027e-020 0 1.42109e-014 15.0019 -3.41236e-021 0 1.22276e-020 -4.16352 -0.485088 1.4795 7.58303e-022 -7.95139e-016 2.45027e-020 9.35075e-005 -0.000392738 14.9226 -3.41236e-021 0 1.22276e-020 6.0207 -9.81639 -3.65796e-016 112.799 3.23426e-015 -90 3.38327 -0.728579 2.22495 -180 6.59355e-015 160 0 -1.42109e-014 -14.9599 -1.59028e-015 3.18055e-015 1.98785e-015 -3.16953e-016 -0.0431035 3.99141 4.17067e-021 -6.36111e-015 -2.46449e-021 1.35525e-020 0 14.9599 -3.03321e-021 -3.18055e-015 8.72049e-021 -2.08724 0.559133 2.49549 -6.22917e-016 -6.36111e-015 -20 0 0 14.9599 -1.59028e-015 -3.18055e-015 -3.97569e-015 -7.85698 -6.72885 9.63956 34.106 19.9417 85.9622 -7.85684 -6.72882 -9.63956 -145.894 19.9417 85.9622 2.27962 -6.23146 6.72563 11.3123 26.2605 -112.654 21.051 1.28041e-007 1.53423e-007 159.409 -63.9054 -141.748 33.1145 8.3753e-007 -2.8019e-007 73.7803 7.01671e-015 -180 29.9221 -3.01981e-014 1.06581e-014 -30.6945 -3.28342e-015 3.59774e-015 9.62649 2.13163e-014 3.55271e-015 29.859 -1.7467e-015 90 0.150706 -5.35874 -6.72563 -73.6535 9.37248 -17.9831 1.1653 -12.7157 -16.7361 62.6737 -66.414 145.436 16.2308 -5.97551 28.2387 154.218 18.1894 107.351 26.7017 -9.19239 -9.89204 13.7905 53.6855 51.361 4.44874 -7.74942 3.58114 29.859 -1.7467e-015 90 -0.323145 -1.55994 -9.59625 -62.7106 -9.24999 4.74057 13.2848 -5.74129 -7.13912 -15.6598 10.3497 47.4358 14.815 16.9375 15.0957 -4.58599 4.65761 -53.8608 23.6904 -6.58016 -3.54465 3.90194 1.0012 -51.0145 1.47758 -6.16068 -2.41079 3.97569e-016 0 -2.68359e-015 2.82533 14.5514 -2.79776e-014 31.4199 -2.31087e-015 -4.49129e-015 7.87756 7.10543e-015 -1.02141e-014 36.2889 -1.26104e-015 1.57785e-015 6.52588 2.13163e-014 -9.76996e-015 2.92495 2.04997e-016 3.85145e-016 -9.30511 7.998 11.2048 -6.8505 -4.18474e-016 -90 0 0 0 -3.40108e-016 -1.59028e-015 5.59082e-017 -9.30514 7.99801 -11.2048 173.149 4.18474e-016 -90 0 0 0 -3.88251e-016 1.59028e-015 2.48481e-017 
0 0 0 0 0 -0 5.65288e-014 63.4181 -42.9496 2.82152 -1.23188 90.027 -0.323145 -1.55994 9.59625 -26.4062 61.2999 -67.9538 16.1374 -7.2668e-007 1.72717e-006 -30.556 9.41376 51.5612 27.0969 0 -2.84217e-014 4.66154e-015 1.98785e-015 -58.162 24.8414 7.10543e-015 7.10543e-015 0.725529 0.676759 -43.1738 6.77858 -7.10543e-015 -1.42109e-014 9.70628e-020 -1.45594e-019 -6.36111e-015 -19.3146 -2.79553 -0.126266 11.1766 2.44323 -0.505231 -18.8999 0.162442 -0.00169622 13.2093 0.320628 -0.0834437 -16.9315 1.48991 2.67011e-006 -2.96996 0.00116082 -0.000297415 -16.7263 8.10137 -0.000111861 8.96856 -0.00137774 0.000538091 -19.144 8.35871 -2.07811e-014 -5.64569 -3.45665e-015 -1.06758e-014 -16.3943 7.24542 2.60762e-014 -8.44604 2.7644e-015 -1.39206e-014 -19.3877 2.40349 -3.46626e-014 7.03734 6.15742e-015 -1.46489e-014 -13.796 -11.6756 2.83203e-014 -13.157 -7.27971e-020 4.85314e-020 -15.825 14.8229 15.3879 113.338 -2.63885 -24.2739 6.55118 1.56319e-013 0 3.07728 -7.47871 2.46233 6.73503 2.84217e-014 -5.50671e-014 6.20706e-032 1.19271e-015 -2.98177e-015 1.34858 -27.5886 -1.33918e-014 92.7985 1.3173e-014 -1.65353e-014 -15.825 14.8229 -15.3879 0.620237 -0.0831984 0.268788 -2.40814 5.46468 -2.69372 -33.2492 -3.92897 -11.6611 -2.40922 6.0083 -1.85921 -3.18055e-015 -7.95139e-016 -0 4.72477 -9.87974 -3.65701e-016 92.7985 3.50417e-015 -90 4.96118 -0.690234 1.45871 -180 7.01671e-015 180 0 -1.42109e-014 -14.9226 -0 -1.59028e-015 -0 -5.42101e-020 0 3.94939 4.85314e-020 0 1.21329e-020 0 -1.42109e-014 15.0019 4.85314e-020 -1.59028e-015 1.21329e-020 -4.16352 -0.485088 1.4795 4.85314e-020 0 1.21329e-020 9.35075e-005 -0.000392738 14.9226 4.85314e-020 -1.59028e-015 1.21329e-020 6.0207 -9.81639 -3.6581e-016 112.799 3.23426e-015 -90 3.38327 -0.728579 2.22495 -180 6.59355e-015 160 0 0 -14.9599 -4.77083e-015 6.36111e-015 7.95139e-016 -3.16858e-016 -0.0431035 3.99141 4.85314e-020 6.36111e-015 -0 0 -7.10543e-015 14.9599 -2.69403e-036 6.36111e-015 2.42657e-020 -2.08724 0.559133 2.49549 -1.06942e-015 6.36111e-015 -20 0 0 14.9599 -1.59028e-015 -1.27222e-014 -1.59028e-015 -7.85698 -6.72885 9.63956 34.106 19.9417 85.9622 -7.85684 -6.72882 -9.63956 -145.894 19.9417 85.9622 2.11013 -6.01735 6.72563 11.7831 26.2605 -112.654 21.051 8.6549e-008 1.11639e-007 153.28 -65.7646 -147.297 33.1145 8.3753e-007 -2.8019e-007 75.1891 7.01671e-015 -180 29.9221 -1.15463e-014 2.4869e-014 -27.8705 -3.1022e-015 3.75526e-015 9.62649 2.13163e-014 3.55271e-015 29.859 -1.7467e-015 90 0.0786168 -5.21399 -6.72563 -72.6941 9.37253 -17.9831 1.1653 -12.7157 -16.7361 64.6136 -65.3012 143.494 16.2308 -5.97551 28.2387 153.795 18.0599 108.71 26.7017 -9.19239 -9.89204 18.0299 51.4223 46.0248 4.44874 -7.74942 3.58114 29.859 -1.7467e-015 90 -0.323145 -1.55994 -9.59625 -62.7106 -9.24999 4.74057 13.2848 -5.74129 -7.13912 -15.7035 10.3471 47.2998 14.815 16.9375 15.0957 -5.30733 5.38427 -53.7977 23.6904 -6.58016 -3.54465 4.52124 1.07932 -50.9867 1.47758 -6.16068 -2.41079 -3.24146e-032 7.95139e-016 2.33572e-015 2.82533 14.5514 -7.10543e-015 29.9073 -1.62755e-015 -5.15598e-015 7.87756 -7.10543e-015 -7.10543e-015 35.3063 -1.11195e-015 6.39838e-016 6.52588 2.84217e-014 -3.10862e-015 2.75753 -1.67725e-016 2.50034e-016 -9.30511 7.998 11.2048 -6.8505 -4.18474e-016 -90 0 0 0 7.11276e-016 0 -8.07563e-017 -9.30514 7.99801 -11.2048 173.149 4.18474e-016 -90 0 0 0 4.80655e-016 -1.59028e-015 -4.03781e-017 
